<svg width="29" height="28" viewBox="0 0 29 28" fill="none" xmlns="http://www.w3.org/2000/svg">
<path fill-rule="evenodd" clip-rule="evenodd" d="M14.5 27.5C22.0939 27.5 28.25 21.3439 28.25 13.75C28.25 6.15608 22.0939 0 14.5 0C6.90608 0 0.75 6.15608 0.75 13.75C0.75 21.3439 6.90608 27.5 14.5 27.5ZM15.5312 9.625C15.5312 9.05546 15.0695 8.59375 14.5 8.59375C13.9305 8.59375 13.4688 9.05546 13.4688 9.625L13.4687 12.7188H10.375C9.80546 12.7188 9.34375 13.1805 9.34375 13.75C9.34375 14.3196 9.80546 14.7813 10.375 14.7813H13.4687V17.875C13.4687 18.4445 13.9305 18.9062 14.5 18.9062C15.0695 18.9062 15.5312 18.4445 15.5312 17.875L15.5312 14.7813H18.625C19.1945 14.7813 19.6562 14.3196 19.6562 13.75C19.6562 13.1805 19.1945 12.7188 18.625 12.7188H15.5312V9.625Z" fill="#27446E"/>
</svg>
