<svg width="32" height="32" viewBox="0 0 32 32" fill="none" xmlns="http://www.w3.org/2000/svg">
<g opacity="0.7">
<path d="M25.6872 23.2845C25.6872 23.9979 25.1089 24.5762 24.3955 24.5762C23.6821 24.5762 23.1038 23.9979 23.1038 23.2845C23.1038 22.5711 23.6821 21.9928 24.3955 21.9928C25.1089 21.9928 25.6872 22.5711 25.6872 23.2845Z" fill="#828A89"/>
<path d="M8.89551 7.7845C8.89551 8.49787 8.31721 9.07617 7.60384 9.07617C6.89047 9.07617 6.31217 8.49787 6.31217 7.7845C6.31217 7.07114 6.89047 6.49284 7.60384 6.49284C8.31721 6.49284 8.89551 7.07114 8.89551 7.7845Z" fill="#828A89"/>
<path fill-rule="evenodd" clip-rule="evenodd" d="M2.11426 7.47104C2.11426 4.54796 4.63877 2.29492 7.60384 2.29492C10.5689 2.29492 13.0934 4.54796 13.0934 7.47104C13.0934 10.0883 11.4843 13.1773 8.81124 14.3196C8.04328 14.6478 7.1644 14.6478 6.39645 14.3196C3.72343 13.1773 2.11426 10.0883 2.11426 7.47104ZM7.60384 4.23242C5.57534 4.23242 4.05176 5.74679 4.05176 7.47104C4.05176 9.46468 5.32838 11.7562 7.15782 12.538C7.43946 12.6583 7.76822 12.6583 8.04986 12.538C9.87931 11.7562 11.1559 9.46468 11.1559 7.47104C11.1559 5.74679 9.63234 4.23242 7.60384 4.23242ZM15.0309 7.13867C15.0309 6.60365 15.4646 6.16992 15.9997 6.16992H21.3367C24.8904 6.16992 26.2418 10.8109 23.2437 12.7188L9.79584 21.2765C8.43305 22.1437 9.04736 24.2533 10.6627 24.2533H13.6609L13.3772 23.9695C12.9988 23.5912 12.9988 22.9778 13.3772 22.5995C13.7555 22.2212 14.3689 22.2212 14.7472 22.5995L16.6847 24.537C17.063 24.9153 17.063 25.5287 16.6847 25.907L14.7472 27.8445C14.3689 28.2228 13.7555 28.2228 13.3772 27.8445C12.9988 27.4662 12.9988 26.8528 13.3772 26.4745L13.6609 26.1908H10.6627C7.10897 26.1908 5.75755 21.5498 8.75564 19.6419L22.2035 11.0842C23.5663 10.2169 22.952 8.10742 21.3367 8.10742H15.9997C15.4646 8.10742 15.0309 7.6737 15.0309 7.13867ZM18.9059 22.971C18.9059 20.048 21.4304 17.7949 24.3955 17.7949C27.3606 17.7949 29.8851 20.048 29.8851 22.971C29.8851 25.5883 28.2759 28.6773 25.6029 29.8196C24.8349 30.1478 23.9561 30.1478 23.1881 29.8196C20.5151 28.6773 18.9059 25.5883 18.9059 22.971ZM24.3955 19.7324C22.367 19.7324 20.8434 21.2468 20.8434 22.971C20.8434 24.9647 22.12 27.2562 23.9495 28.038C24.2311 28.1583 24.5599 28.1583 24.8415 28.038C26.671 27.2562 27.9476 24.9647 27.9476 22.971C27.9476 21.2468 26.424 19.7324 24.3955 19.7324Z" fill="#828A89"/>
</g>
</svg>
