<svg width="40" height="42" viewBox="0 0 40 42" fill="none" xmlns="http://www.w3.org/2000/svg">
<g opacity="0.75">
<g opacity="0.75">
<path fill-rule="evenodd" clip-rule="evenodd" d="M18.1355 6.65967H20.8645C23.2383 6.65965 25.1185 6.65963 26.59 6.86296C28.1044 7.07221 29.3301 7.5131 30.2967 8.50657C31.2634 9.50003 31.6923 10.7598 31.896 12.3162C32.0572 13.5485 32.087 15.0597 32.0925 16.897C32.0933 16.9139 32.0938 16.9308 32.0938 16.9479C32.0938 16.9631 32.0934 16.9781 32.0928 16.9931C32.0938 17.381 32.0938 17.7834 32.0938 18.2006V22.3329C32.0938 24.7725 32.0938 26.7049 31.896 28.2172C31.6923 29.7737 31.2634 31.0334 30.2967 32.0269C29.7038 32.6362 29.0134 33.0377 28.2188 33.3053V34.2056C28.2188 34.7555 27.785 35.2013 27.25 35.2013C26.715 35.2013 26.2812 34.7555 26.2812 34.2056V33.7095C24.8581 33.8738 23.0754 33.8738 20.8645 33.8738H18.1355C15.9246 33.8738 14.1419 33.8738 12.7188 33.7095V34.2056C12.7188 34.7555 12.285 35.2013 11.75 35.2013C11.215 35.2013 10.7813 34.7555 10.7813 34.2056V33.3053C9.98657 33.0377 9.29618 32.6362 8.70327 32.0269C7.73664 31.0334 7.30765 29.7737 7.10405 28.2172C6.90621 26.7049 6.90623 24.7725 6.90625 22.3329V18.2005C6.90625 17.7834 6.90624 17.381 6.90723 16.9931C6.90658 16.9781 6.90625 16.9631 6.90625 16.9479C6.90625 16.9309 6.90667 16.9139 6.9075 16.897C6.91301 15.0597 6.94284 13.5485 7.10405 12.3162C7.30765 10.7598 7.73664 9.50003 8.70327 8.50657C9.66991 7.5131 10.8956 7.07221 12.41 6.86296C13.8815 6.65963 15.7617 6.65965 18.1355 6.65967ZM8.84378 17.9436C8.84375 18.0528 8.84375 18.1634 8.84375 18.2754V22.258C8.84375 24.7893 8.84581 26.5877 9.02427 27.9519C9.19899 29.2875 9.52665 30.057 10.0733 30.6188C10.6199 31.1806 11.3686 31.5174 12.6682 31.697C13.9956 31.8804 15.7454 31.8825 18.2083 31.8825H20.7917C23.2546 31.8825 25.0044 31.8804 26.3318 31.697C27.6314 31.5174 28.3801 31.1806 28.9267 30.6188C29.4734 30.057 29.801 29.2875 29.9757 27.9519C30.1542 26.5877 30.1562 24.7893 30.1562 22.258V18.2754C30.1562 18.1634 30.1562 18.0528 30.1562 17.9436H8.84378ZM30.1489 15.9523H8.85115C8.86522 14.5801 8.90602 13.4855 9.02427 12.5815C9.19899 11.2459 9.52665 10.4764 10.0733 9.91461C10.6199 9.35279 11.3686 9.01604 12.6682 8.83648C13.9956 8.65306 15.7454 8.65094 18.2083 8.65094H20.7917C23.2546 8.65094 25.0044 8.65306 26.3318 8.83648C27.6314 9.01604 28.3801 9.35279 28.9267 9.91461C29.4734 10.4764 29.801 11.2459 29.9757 12.5815C30.094 13.4855 30.1348 14.5801 30.1489 15.9523ZM11.4271 12.3016C11.4271 11.7517 11.8608 11.306 12.3958 11.306H16.2708C16.8059 11.306 17.2396 11.7517 17.2396 12.3016C17.2396 12.8515 16.8059 13.2973 16.2708 13.2973H12.3958C11.8608 13.2973 11.4271 12.8515 11.4271 12.3016ZM19.5 21.9261C17.8949 21.9261 16.5938 23.2634 16.5938 24.913C16.5938 26.5627 17.8949 27.8999 19.5 27.8999C21.1051 27.8999 22.4063 26.5627 22.4063 24.913C22.4063 23.2634 21.1051 21.9261 19.5 21.9261ZM14.6563 24.913C14.6563 22.1637 16.8249 19.9348 19.5 19.9348C22.1751 19.9348 24.3438 22.1637 24.3438 24.913C24.3438 27.6624 22.1751 29.8912 19.5 29.8912C16.8249 29.8912 14.6563 27.6624 14.6563 24.913Z" fill="#828A89"/>
<path d="M24.0208 12.3016C24.0208 13.0348 23.4425 13.6291 22.7292 13.6291C22.0158 13.6291 21.4375 13.0348 21.4375 12.3016C21.4375 11.5684 22.0158 10.9741 22.7292 10.9741C23.4425 10.9741 24.0208 11.5684 24.0208 12.3016Z" fill="#828A89"/>
<path d="M27.8958 12.3016C27.8958 13.0348 27.3175 13.6291 26.6042 13.6291C25.8908 13.6291 25.3125 13.0348 25.3125 12.3016C25.3125 11.5684 25.8908 10.9741 26.6042 10.9741C27.3175 10.9741 27.8958 11.5684 27.8958 12.3016Z" fill="#828A89"/>
</g>
</g>
</svg>
