<svg width="38" height="38" viewBox="0 0 38 38" fill="none" xmlns="http://www.w3.org/2000/svg">
<path fill-rule="evenodd" clip-rule="evenodd" d="M25.1018 16.6571C25.398 15.1227 25.5531 13.538 25.5531 11.9172V0.794434H0.690477V36.7798C6.71114 36.7798 12.232 34.6398 16.5338 31.0789C20.8255 33.938 27.7072 36.6557 36.0215 35.1441C33.7315 34.1626 24.8987 28.2741 25.2259 16.4971C25.1862 16.5517 25.1448 16.605 25.1018 16.6571Z" fill="#27446E"/>
<path d="M25.1018 16.6571L25.4948 16.9817L24.6013 16.5604L25.1018 16.6571ZM25.5531 0.794434V0.284691H26.0628V0.794434H25.5531ZM0.690477 0.794434H0.180735V0.284691H0.690477V0.794434ZM0.690477 36.7798V37.2895H0.180735V36.7798H0.690477ZM16.5338 31.0789L16.2088 30.6862L16.5009 30.4444L16.8164 30.6547L16.5338 31.0789ZM36.0215 35.1441L36.2223 34.6755L37.7789 35.3426L36.1127 35.6456L36.0215 35.1441ZM25.2259 16.4971L24.8136 16.1973L25.7811 14.867L25.7354 16.5113L25.2259 16.4971ZM26.0628 11.9172C26.0628 13.5706 25.9046 15.1876 25.6023 16.7537L24.6013 16.5604C24.8914 15.0577 25.0433 13.5054 25.0433 11.9172H26.0628ZM26.0628 0.794434V11.9172H25.0433V0.794434H26.0628ZM0.690477 0.284691H25.5531V1.30418H0.690477V0.284691ZM0.180735 36.7798V0.794434H1.20022V36.7798H0.180735ZM16.8588 31.4716C12.469 35.1053 6.83412 37.2895 0.690477 37.2895V36.27C6.58815 36.27 11.995 34.1742 16.2088 30.6862L16.8588 31.4716ZM36.1127 35.6456C27.636 37.1868 20.6219 34.4148 16.2512 31.5031L16.8164 30.6547C21.0292 33.4612 27.7784 36.1247 35.9303 34.6425L36.1127 35.6456ZM25.7354 16.5113C25.5758 22.2591 27.6485 26.5607 30.0403 29.5505C32.4421 32.5528 35.1554 34.2183 36.2223 34.6755L35.8207 35.6126C34.5976 35.0884 31.7495 33.3189 29.2442 30.1874C26.729 27.0433 24.5489 22.5122 24.7163 16.483L25.7354 16.5113ZM24.7088 16.3324C24.7453 16.2883 24.7802 16.2432 24.8136 16.1973L25.6381 16.7969C25.5922 16.8601 25.5444 16.9217 25.4948 16.9817L24.7088 16.3324Z" fill="#27446E"/>
</svg>
