<svg width="40" height="42" viewBox="0 0 40 42" fill="none" xmlns="http://www.w3.org/2000/svg">
<g opacity="0.75" clip-path="url(#clip0_146_2020)">
<path d="M16.9546 9.58015C18.7067 9.58015 20.1575 8.11627 20.1575 6.35156C20.1575 4.57765 18.7067 3.11377 16.9546 3.11377C15.1908 3.11377 13.7374 4.57765 13.7374 6.35156C13.7374 8.11627 15.1908 9.58015 16.9546 9.58015ZM18.8033 33.5247C19.389 33.6764 20.3785 33.4671 20.6655 32.4992L22.7608 25.4953C22.9855 24.7158 22.6413 23.9036 21.8168 23.6172L16.1823 21.6545L16.8697 16.9361C16.8983 16.6741 17.2339 16.6073 17.3573 16.8627L18.5192 19.1364C18.8036 19.6923 19.3035 19.9695 19.8749 19.9695H25.6817C26.5036 19.9695 27.1996 19.3169 27.1996 18.4549C27.1996 17.6337 26.5062 16.9404 25.6817 16.9404H20.8072L18.93 13.202C18.3168 11.967 17.2167 11.0918 15.8425 10.8275L15.0319 10.6666C13.529 10.3735 12.312 10.7006 11.3768 11.2867L6.68328 14.228C6.26255 14.5118 5.97559 14.9984 5.97559 15.5399V21.3792C5.97559 22.2124 6.66642 22.92 7.49359 22.92C8.32333 22.92 9.01417 22.2124 9.01417 21.3792V16.3637L10.9223 15.1685C11.1004 15.0677 11.3045 15.1777 11.2667 15.391L10.6119 20.6898C10.3495 22.7778 11.0418 24.2206 13.4304 24.7832L19.395 26.1938L17.7775 31.6465C17.5503 32.4287 17.8541 33.2552 18.8033 33.5247ZM8.12783 38.7845C8.66804 39.1455 9.64584 39.1481 10.2029 38.3294L14.4794 31.9143C14.6846 31.6041 14.7898 31.3584 14.847 30.9881L15.4395 26.8093L13.098 26.2559C12.7396 26.1762 12.4215 26.0584 12.1228 25.9499L11.8252 30.4481L7.70195 36.6631C7.23578 37.3589 7.40327 38.315 8.12783 38.7845ZM14.0807 41.1533H18.703C19.2052 41.1533 19.6281 40.7272 19.6281 40.2188V37.5158H23.337C23.8275 37.5158 24.2336 37.116 24.2336 36.5984V33.8784H27.9711C28.4733 33.8784 28.8703 33.4812 28.8703 32.9728V30.2555H32.467C32.9692 30.2555 33.3923 29.8438 33.3923 29.3379C33.3923 28.8466 32.9692 28.4205 32.467 28.4205H27.9711C27.4638 28.4205 27.0745 28.8492 27.0745 29.3379V32.0579H23.337C22.818 32.0579 22.4405 32.484 22.4405 32.9728V35.6926H18.703C18.2125 35.6926 17.8181 36.0926 17.8181 36.5984V39.3301H14.0807C13.5616 39.3301 13.1815 39.7273 13.1815 40.2188C13.1815 40.7246 13.559 41.1533 14.0807 41.1533Z" fill="#9EA4A3"/>
</g>
<defs>
<clipPath id="clip0_146_2020">
<rect width="40" height="41.1102" fill="white"/>
</clipPath>
</defs>
</svg>
