<svg width="40" height="42" viewBox="0 0 40 42" fill="none" xmlns="http://www.w3.org/2000/svg">
<g opacity="0.75">
<path d="M11.7757 16.8639C11.7757 17.7485 11.0392 18.4657 10.1308 18.4657C9.2223 18.4657 8.48585 17.7485 8.48585 16.8639C8.48585 15.9794 9.2223 15.2622 10.1308 15.2622C11.0392 15.2622 11.7757 15.9794 11.7757 16.8639Z" fill="#828A89"/>
<path d="M11.7757 21.6691C11.7757 22.5537 11.0392 23.2708 10.1308 23.2708C9.2223 23.2708 8.48585 22.5537 8.48585 21.6691C8.48585 20.7845 9.2223 20.0674 10.1308 20.0674C11.0392 20.0674 11.7757 20.7845 11.7757 21.6691Z" fill="#828A89"/>
<path d="M16.7105 21.6691C16.7105 22.5537 15.974 23.2708 15.0655 23.2708C14.1571 23.2708 13.4206 22.5537 13.4206 21.6691C13.4206 20.7845 14.1571 20.0674 15.0655 20.0674C15.974 20.0674 16.7105 20.7845 16.7105 21.6691Z" fill="#828A89"/>
<path d="M16.7105 16.8639C16.7105 17.7485 15.974 18.4657 15.0655 18.4657C14.1571 18.4657 13.4206 17.7485 13.4206 16.8639C13.4206 15.9794 14.1571 15.2622 15.0655 15.2622C15.974 15.2622 16.7105 15.9794 16.7105 16.8639Z" fill="#828A89"/>
<path d="M21.6452 16.8639C21.6452 17.7485 20.9088 18.4657 20.0003 18.4657C19.0918 18.4657 18.3554 17.7485 18.3554 16.8639C18.3554 15.9794 19.0918 15.2622 20.0003 15.2622C20.9088 15.2622 21.6452 15.9794 21.6452 16.8639Z" fill="#828A89"/>
<path d="M21.6452 21.6691C21.6452 22.5537 20.9088 23.2708 20.0003 23.2708C19.0918 23.2708 18.3554 22.5537 18.3554 21.6691C18.3554 20.7845 19.0918 20.0674 20.0003 20.0674C20.9088 20.0674 21.6452 20.7845 21.6452 21.6691Z" fill="#828A89"/>
<path d="M26.58 16.8639C26.58 17.7485 25.8435 18.4657 24.9351 18.4657C24.0266 18.4657 23.2902 17.7485 23.2902 16.8639C23.2902 15.9794 24.0266 15.2622 24.9351 15.2622C25.8435 15.2622 26.58 15.9794 26.58 16.8639Z" fill="#828A89"/>
<path d="M26.58 21.6691C26.58 22.5537 25.8435 23.2708 24.9351 23.2708C24.0266 23.2708 23.2902 22.5537 23.2902 21.6691C23.2902 20.7845 24.0266 20.0674 24.9351 20.0674C25.8435 20.0674 26.58 20.7845 26.58 21.6691Z" fill="#828A89"/>
<path d="M31.5148 16.8639C31.5148 17.7485 30.7783 18.4657 29.8699 18.4657C28.9614 18.4657 28.2249 17.7485 28.2249 16.8639C28.2249 15.9794 28.9614 15.2622 29.8699 15.2622C30.7783 15.2622 31.5148 15.9794 31.5148 16.8639Z" fill="#828A89"/>
<path d="M31.5148 21.6691C31.5148 22.5537 30.7783 23.2708 29.8699 23.2708C28.9614 23.2708 28.2249 22.5537 28.2249 21.6691C28.2249 20.7845 28.9614 20.0674 29.8699 20.0674C30.7783 20.0674 31.5148 20.7845 31.5148 21.6691Z" fill="#828A89"/>
<path fill-rule="evenodd" clip-rule="evenodd" d="M13.3304 9.25586H26.6703C28.9198 9.25583 30.7331 9.2558 32.1592 9.4425C33.6398 9.63633 34.8864 10.051 35.8765 11.0151C36.8666 11.9792 37.2925 13.1931 37.4916 14.6348C37.6833 16.0234 37.6833 17.789 37.6832 19.9795V23.3586C37.6833 25.5491 37.6833 27.3147 37.4916 28.7033C37.2925 30.145 36.8666 31.3589 35.8765 32.323C34.8864 33.2871 33.6398 33.7018 32.1592 33.8956C30.7331 34.0823 28.9198 34.0823 26.6703 34.0823H13.3304C11.0808 34.0823 9.26754 34.0823 7.84145 33.8956C6.36084 33.7018 5.11419 33.2871 4.12409 32.323C3.13398 31.3589 2.70812 30.145 2.50906 28.7033C2.31732 27.3147 2.31735 25.5491 2.31738 23.3587V19.9795C2.31735 17.789 2.31732 16.0234 2.50906 14.6348C2.70812 13.1931 3.13398 11.9792 4.12409 11.0151C5.11419 10.051 6.36084 9.63633 7.84145 9.4425C9.26754 9.2558 11.0808 9.25583 13.3304 9.25586ZM8.17022 11.8236C6.96322 11.9816 6.32404 12.2707 5.86879 12.714C5.41354 13.1572 5.11672 13.7796 4.95444 14.9549C4.78739 16.1648 4.78477 17.7682 4.78477 20.0674V23.2708C4.78477 25.5699 4.78739 27.1734 4.95444 28.3832C5.11672 29.5585 5.41354 30.1809 5.86879 30.6242C6.32404 31.0675 6.96322 31.3565 8.17022 31.5145C9.41271 31.6772 11.0595 31.6797 13.4206 31.6797H26.58C28.9412 31.6797 30.5879 31.6772 31.8304 31.5145C33.0374 31.3565 33.6766 31.0675 34.1318 30.6242C34.5871 30.1809 34.8839 29.5585 35.0462 28.3832C35.2132 27.1734 35.2159 25.5699 35.2159 23.2708V20.0674C35.2159 17.7682 35.2132 16.1648 35.0462 14.9549C34.8839 13.7796 34.5871 13.1572 34.1318 12.714C33.6766 12.2707 33.0374 11.9816 31.8304 11.8236C30.5879 11.661 28.9412 11.6584 26.58 11.6584H13.4206C11.0595 11.6584 9.41271 11.661 8.17022 11.8236ZM10.542 28.0759C10.542 27.4124 11.0943 26.8746 11.7757 26.8746H28.2249C28.9063 26.8746 29.4586 27.4124 29.4586 28.0759C29.4586 28.7393 28.9063 29.2771 28.2249 29.2771H11.7757C11.0943 29.2771 10.542 28.7393 10.542 28.0759Z" fill="#828A89"/>
</g>
</svg>
