<svg width="33" height="33" viewBox="0 0 33 33" fill="none" xmlns="http://www.w3.org/2000/svg">
<path d="M16.3119 28.5457C23.0685 28.5457 28.5457 23.0685 28.5457 16.3119C28.5457 9.55539 23.0685 4.07812 16.3119 4.07812C9.55539 4.07812 4.07812 9.55539 4.07812 16.3119C4.07812 23.0685 9.55539 28.5457 16.3119 28.5457Z" stroke="#616161" stroke-width="2.03897" stroke-linecap="round" stroke-linejoin="round"/>
<path d="M11.7241 15.2923C12.5686 15.2923 13.2533 14.6077 13.2533 13.7631C13.2533 12.9185 12.5686 12.2339 11.7241 12.2339C10.8795 12.2339 10.1948 12.9185 10.1948 13.7631C10.1948 14.6077 10.8795 15.2923 11.7241 15.2923Z" fill="#616161"/>
<path d="M20.8993 15.2923C21.7439 15.2923 22.4286 14.6077 22.4286 13.7631C22.4286 12.9185 21.7439 12.2339 20.8993 12.2339C20.0548 12.2339 19.3701 12.9185 19.3701 13.7631C19.3701 14.6077 20.0548 15.2923 20.8993 15.2923Z" fill="#616161"/>
<path d="M21.6129 19.3701C21.074 20.2986 20.3006 21.0693 19.3702 21.605C18.4399 22.1407 17.3851 22.4227 16.3116 22.4227C15.238 22.4227 14.1833 22.1407 13.2529 21.605C12.3225 21.0693 11.5492 20.2986 11.0103 19.3701" stroke="#616161" stroke-width="2.03897" stroke-linecap="round" stroke-linejoin="round"/>
</svg>
