<svg width="43" height="12" viewBox="0 0 43 12" fill="none" xmlns="http://www.w3.org/2000/svg">
<path d="M36.0469 0.350897C36.2053 -0.116965 36.8949 -0.116966 37.0533 0.350897L38.2132 3.77703C38.2841 3.98626 38.4872 4.12793 38.7164 4.12793H42.47C42.9825 4.12793 43.1957 4.75743 42.781 5.04659L39.7443 7.16405C39.5589 7.29337 39.4813 7.52258 39.5521 7.73182L40.712 11.1579C40.8704 11.6258 40.3124 12.0149 39.8978 11.7257L36.8611 9.60825C36.6757 9.47893 36.4245 9.47893 36.2391 9.60825L33.2024 11.7257C32.7877 12.0149 32.2298 11.6258 32.3882 11.1579L33.5481 7.73182C33.6189 7.52258 33.5413 7.29337 33.3559 7.16405L30.3192 5.04659C29.9045 4.75743 30.1177 4.12793 30.6302 4.12793H34.3838C34.613 4.12793 34.8161 3.98626 34.887 3.77703L36.0469 0.350897Z" fill="#FFD336"/>
<path d="M20.9968 0.350897C21.1552 -0.116965 21.8449 -0.116966 22.0033 0.350897L23.1632 3.77703C23.234 3.98626 23.4372 4.12793 23.6664 4.12793H27.4199C27.9325 4.12793 28.1456 4.75743 27.7309 5.04659L24.6943 7.16405C24.5088 7.29337 24.4312 7.52258 24.502 7.73182L25.6619 11.1579C25.8203 11.6258 25.2624 12.0149 24.8477 11.7257L21.8111 9.60825C21.6256 9.47893 21.3745 9.47893 21.189 9.60825L18.1524 11.7257C17.7377 12.0149 17.1798 11.6258 17.3381 11.1579L18.498 7.73182C18.5689 7.52258 18.4913 7.29337 18.3058 7.16405L15.2692 5.04659C14.8545 4.75743 15.0676 4.12793 15.5802 4.12793H19.3337C19.5629 4.12793 19.7661 3.98626 19.8369 3.77703L20.9968 0.350897Z" fill="#FFD336"/>
<path d="M5.94678 0.350897C6.10517 -0.116965 6.79483 -0.116966 6.95322 0.350897L8.11312 3.77703C8.18396 3.98626 8.38712 4.12793 8.61635 4.12793H12.3699C12.8824 4.12793 13.0956 4.75743 12.6809 5.04659L9.64421 7.16405C9.45876 7.29337 9.38116 7.52258 9.452 7.73182L10.6119 11.1579C10.7703 11.6258 10.2123 12.0149 9.79767 11.7257L6.76101 9.60825C6.57556 9.47893 6.32444 9.47893 6.13899 9.60825L3.10233 11.7257C2.68765 12.0149 2.12971 11.6258 2.2881 11.1579L3.448 7.73182C3.51884 7.52258 3.44124 7.29337 3.25579 7.16405L0.219125 5.04659C-0.195553 4.75743 0.017563 4.12793 0.530133 4.12793H4.28365C4.51288 4.12793 4.71604 3.98626 4.78688 3.77703L5.94678 0.350897Z" fill="#FFD336"/>
</svg>
