<svg width="32" height="32" viewBox="0 0 32 32" fill="none" xmlns="http://www.w3.org/2000/svg">
<path fill-rule="evenodd" clip-rule="evenodd" d="M27.625 3.26351V1.97184C27.625 1.25884 27.0463 0.680176 26.3333 0.680176H5.66667C4.95367 0.680176 4.375 1.25884 4.375 1.97184V3.26351H27.625Z" fill="#B2B7B7"/>
<rect x="0.5" y="9.72168" width="2.58333" height="5.16667" fill="#B2B7B7"/>
<rect x="28.917" y="9.72168" width="2.58333" height="5.16667" fill="#B2B7B7"/>
<path fill-rule="evenodd" clip-rule="evenodd" d="M29.8302 17.8501L27.6253 15.6453V5.84668H4.37533V15.6453L2.17045 17.8501C1.92762 18.0917 1.79199 18.4211 1.79199 18.7633V26.5133C1.79199 27.2263 2.37066 27.805 3.08366 27.805H28.917C29.63 27.805 30.2087 27.2263 30.2087 26.5133V18.7633C30.2087 18.4211 30.073 18.0917 29.8302 17.8501ZM6.95866 8.43001H25.042V14.8883H6.95866V8.43001ZM6.95866 23.93C6.24566 23.93 5.66699 23.3513 5.66699 22.6383C5.66699 21.9253 6.24566 21.3467 6.95866 21.3467C7.67166 21.3467 8.25033 21.9253 8.25033 22.6383C8.25033 23.3513 7.67166 23.93 6.95866 23.93ZM25.042 23.93C24.329 23.93 23.7503 23.3513 23.7503 22.6383C23.7503 21.9253 24.329 21.3467 25.042 21.3467C25.755 21.3467 26.3337 21.9253 26.3337 22.6383C26.3337 23.3513 25.755 23.93 25.042 23.93Z" fill="#B2B7B7"/>
<path fill-rule="evenodd" clip-rule="evenodd" d="M4.375 29.0967V30.3883C4.375 31.1013 4.95238 31.68 5.66667 31.68H9.54167C10.256 31.68 10.8333 31.1013 10.8333 30.3883V29.0967H4.375Z" fill="#B2B7B7"/>
<path fill-rule="evenodd" clip-rule="evenodd" d="M21.167 29.0967V30.3883C21.167 31.1013 21.7444 31.68 22.4587 31.68H26.3337C27.0479 31.68 27.6253 31.1013 27.6253 30.3883V29.0967H21.167Z" fill="#B2B7B7"/>
</svg>
