<svg width="14" height="14" viewBox="0 0 14 14" fill="none" xmlns="http://www.w3.org/2000/svg">
<path fill-rule="evenodd" clip-rule="evenodd" d="M12.2501 1.16668V0.583339C12.2501 0.261336 11.9888 0 11.6668 0H2.33334C2.01134 0 1.75 0.261336 1.75 0.583339V1.16668H12.2501Z" fill="#6A6A6A"/>
<rect y="4.08301" width="1.16668" height="2.33336" fill="#6A6A6A"/>
<rect x="12.8334" y="4.08301" width="1.16668" height="2.33336" fill="#6A6A6A"/>
<path fill-rule="evenodd" clip-rule="evenodd" d="M13.2458 7.75361L12.25 6.75785V2.33264H1.74993V6.75785L0.75417 7.75361C0.644503 7.8627 0.583252 8.01145 0.583252 8.16603V11.6661C0.583252 11.9881 0.844588 12.2494 1.16659 12.2494H12.8334C13.1554 12.2494 13.4167 11.9881 13.4167 11.6661V8.16603C13.4167 8.01145 13.3555 7.8627 13.2458 7.75361ZM2.91673 3.50016H11.0835V6.41685H2.91673V3.50016ZM2.91684 10.4995C2.59483 10.4995 2.3335 10.2382 2.3335 9.91616C2.3335 9.59416 2.59483 9.33283 2.91684 9.33283C3.23884 9.33283 3.50018 9.59416 3.50018 9.91616C3.50018 10.2382 3.23884 10.4995 2.91684 10.4995ZM11.0837 10.4995C10.7617 10.4995 10.5004 10.2382 10.5004 9.91616C10.5004 9.59416 10.7617 9.33283 11.0837 9.33283C11.4057 9.33283 11.667 9.59416 11.667 9.91616C11.667 10.2382 11.4057 10.4995 11.0837 10.4995Z" fill="#6A6A6A"/>
<path fill-rule="evenodd" clip-rule="evenodd" d="M1.75 12.833V13.4163C1.75 13.7384 2.01075 13.9997 2.33334 13.9997H4.08336C4.40594 13.9997 4.6667 13.7384 4.6667 13.4163V12.833H1.75Z" fill="#6A6A6A"/>
<path fill-rule="evenodd" clip-rule="evenodd" d="M9.33337 12.833V13.4163C9.33337 13.7384 9.59413 13.9997 9.91671 13.9997H11.6667C11.9893 13.9997 12.2501 13.7384 12.2501 13.4163V12.833H9.33337Z" fill="#6A6A6A"/>
</svg>
